<?xml version="1.0" encoding="UTF-8" standalone="no"?>
<svg
   xmlns:dc="http://purl.org/dc/elements/1.1/"
   xmlns:cc="http://creativecommons.org/ns#"
   xmlns:rdf="http://www.w3.org/1999/02/22-rdf-syntax-ns#"
   xmlns:svg="http://www.w3.org/2000/svg"
   xmlns="http://www.w3.org/2000/svg"
   xmlns:sodipodi="http://sodipodi.sourceforge.net/DTD/sodipodi-0.dtd"
   xmlns:inkscape="http://www.inkscape.org/namespaces/inkscape"
   inkscape:version="1.0 (4035a4fb49, 2020-05-01)"
   sodipodi:docname="blog_icon.svg"
   id="svg2022"
   version="1.1"
   viewBox="0 0 100 100"
   height="100mm"
   width="100mm">
  <defs
     id="defs2016">
    <clipPath
       clipPathUnits="userSpaceOnUse"
       id="clipPath1277">
      <path
         d="m 230.737,177.043 c 0,0 136.43,10.432 109.144,17.924 -24.528,6.732 -92.024,12.84 -64.737,17.654 21.66,3.822 83.998,2.408 83.998,17.389 0,19.795 -58.291,9.101 -60.993,21.935 -2.14,10.166 39.481,2.756 58.318,23.809 9.096,10.166 7.317,43.56 7.317,43.56 l 27.904,-121.97 c 0.369,-1.114 0.492,-2.266 0.492,-3.448 0,-9.16 -7.425,-16.585 -16.585,-16.585 z"
         id="path1275" />
    </clipPath>
    <linearGradient
       x1="0"
       y1="0"
       x2="1"
       y2="0"
       gradientUnits="userSpaceOnUse"
       gradientTransform="matrix(161.44287,0,0,-161.44287,230.73682,248.17871)"
       spreadMethod="pad"
       id="linearGradient1289">
      <stop
         style="stop-opacity:1;stop-color:#231f20"
         offset="0"
         id="stop1283" />
      <stop
         style="stop-opacity:1;stop-color:#231f20"
         offset="0.00561798"
         id="stop1285" />
      <stop
         style="stop-opacity:1;stop-color:#ffffff"
         offset="1"
         id="stop1287" />
    </linearGradient>
    <clipPath
       clipPathUnits="userSpaceOnUse"
       id="clipPath1299">
      <path
         d="m 292.799,160.992 h 89.616 v -6.42 h -89.616 z"
         id="path1297" />
    </clipPath>
    <linearGradient
       x1="0"
       y1="0"
       x2="1"
       y2="0"
       gradientUnits="userSpaceOnUse"
       gradientTransform="matrix(89.615723,0,0,-89.615723,292.79932,157.78223)"
       spreadMethod="pad"
       id="linearGradient1313">
      <stop
         style="stop-opacity:1;stop-color:#231f20"
         offset="0"
         id="stop1305" />
      <stop
         style="stop-opacity:1;stop-color:#231f20"
         offset="0.00561798"
         id="stop1307" />
      <stop
         style="stop-opacity:1;stop-color:#231f20"
         offset="0.0898876"
         id="stop1309" />
      <stop
         style="stop-opacity:1;stop-color:#ffffff"
         offset="1"
         id="stop1311" />
    </linearGradient>
    <clipPath
       clipPathUnits="userSpaceOnUse"
       id="clipPath1323">
      <path
         d="m 229.862,138.252 h 159.666 c 4.92,0 8.931,2.922 9.128,6.582 0.347,-0.727 0.536,-1.508 0.536,-2.324 v -0.174 c 0,-3.791 -4.089,-6.865 -9.134,-6.865 H 229.995 Z"
         id="path1321" />
    </clipPath>
    <linearGradient
       x1="0"
       y1="0"
       x2="1"
       y2="0"
       gradientUnits="userSpaceOnUse"
       gradientTransform="matrix(169.33008,0,0,-169.33008,229.8623,140.15234)"
       spreadMethod="pad"
       id="linearGradient1337">
      <stop
         style="stop-opacity:1;stop-color:#231f20"
         offset="0"
         id="stop1329" />
      <stop
         style="stop-opacity:1;stop-color:#231f20"
         offset="0.00561798"
         id="stop1331" />
      <stop
         style="stop-opacity:1;stop-color:#231f20"
         offset="0.0898876"
         id="stop1333" />
      <stop
         style="stop-opacity:1;stop-color:#ffffff"
         offset="1"
         id="stop1335" />
    </linearGradient>
    <clipPath
       clipPathUnits="userSpaceOnUse"
       id="clipPath1351">
      <path
         d="m 280.226,350.789 h 65.587 c 3.844,0 7.247,1.693 9.325,4.287 -1.7,-4.082 -5.816,-6.961 -10.624,-6.961 H 280.36 Z"
         id="path1349" />
    </clipPath>
    <linearGradient
       x1="0"
       y1="0"
       x2="1"
       y2="0"
       gradientUnits="userSpaceOnUse"
       gradientTransform="matrix(74.911621,0,0,-74.911621,280.22607,351.5957)"
       spreadMethod="pad"
       id="linearGradient1365">
      <stop
         style="stop-opacity:1;stop-color:#231f20"
         offset="0"
         id="stop1357" />
      <stop
         style="stop-opacity:1;stop-color:#231f20"
         offset="0.00561798"
         id="stop1359" />
      <stop
         style="stop-opacity:1;stop-color:#231f20"
         offset="0.0898876"
         id="stop1361" />
      <stop
         style="stop-opacity:1;stop-color:#ffffff"
         offset="1"
         id="stop1363" />
    </linearGradient>
    <clipPath
       clipPathUnits="userSpaceOnUse"
       id="clipPath1379">
      <path
         d="m 253.981,258.146 c 0,38.1 24.415,68.987 54.534,68.987 30.117,0 54.532,-30.887 54.532,-68.987 0,-38.099 -24.415,-68.986 -54.532,-68.986 -30.119,0 -54.534,30.887 -54.534,68.986 m 22.72,0 c 0,-34.119 14.243,-61.775 31.814,-61.775 17.569,0 31.812,27.656 31.812,61.775 0,34.12 -14.243,61.776 -31.812,61.776 -17.571,0 -31.814,-27.656 -31.814,-61.776"
         clip-rule="evenodd"
         id="path1377" />
    </clipPath>
    <linearGradient
       x1="0"
       y1="0"
       x2="1"
       y2="0"
       gradientUnits="userSpaceOnUse"
       gradientTransform="matrix(0,137.97266,137.97266,0,308.51367,189.16016)"
       spreadMethod="pad"
       id="linearGradient1393">
      <stop
         style="stop-opacity:1;stop-color:#2e3192"
         offset="0"
         id="stop1385" />
      <stop
         style="stop-opacity:1;stop-color:#2e3192"
         offset="0.247191"
         id="stop1387" />
      <stop
         style="stop-opacity:1;stop-color:#6bb4e6"
         offset="0.932584"
         id="stop1389" />
      <stop
         style="stop-opacity:1;stop-color:#6bb4e6"
         offset="1"
         id="stop1391" />
    </linearGradient>
    <clipPath
       clipPathUnits="userSpaceOnUse"
       id="clipPath1407">
      <path
         d="m 300.293,200.988 c 0,0 8.587,-0.072 21.149,-11.558 12.854,-11.75 23.907,-11.604 35.029,-6.362 0,0 -4.58,-7.867 -14.566,-8.414 -6.545,-0.357 -12.732,1.721 -20.159,9.571 -12.436,13.148 -21.453,16.763 -21.453,16.763"
         id="path1405" />
    </clipPath>
    <linearGradient
       x1="0"
       y1="0"
       x2="1"
       y2="0"
       gradientUnits="userSpaceOnUse"
       gradientTransform="matrix(56.177246,0,0,-56.177246,300.29346,187.80273)"
       spreadMethod="pad"
       id="linearGradient1419">
      <stop
         style="stop-opacity:1;stop-color:#91dbf1"
         offset="0"
         id="stop1413" />
      <stop
         style="stop-opacity:1;stop-color:#91dbf1"
         offset="0.00561798"
         id="stop1415" />
      <stop
         style="stop-opacity:1;stop-color:#2e3192"
         offset="1"
         id="stop1417" />
    </linearGradient>
    <clipPath
       clipPathUnits="userSpaceOnUse"
       id="clipPath1429">
      <path
         d="m 276.37,201.607 c 0,5.916 4.797,10.713 10.713,10.713 5.917,0 10.714,-4.797 10.714,-10.713 0,-5.918 -4.797,-10.712 -10.714,-10.712 -5.916,0 -10.713,4.794 -10.713,10.712"
         id="path1427" />
    </clipPath>
    <clipPath
       clipPathUnits="userSpaceOnUse"
       id="clipPath1439">
      <path
         d="m 371.173,292.363 c 0,0 -0.604,-7.802 3.937,-10.894 4.539,-3.09 -1.512,-7.963 -1.512,-7.963 0,0 2.443,4.363 0.73,5.797 -1.714,1.435 -4.072,2.588 -4.155,4.791 0,0 -2.199,-4.821 -0.652,-6.086 2.212,-1.807 1.44,-6.502 -1.871,-7.617 0,0 3.357,2.972 1.125,4.966 -3.146,2.813 -1.861,7.2 -0.89,8.918 0,0 -5.16,-6.074 -5.213,-10.16 -0.053,-4.088 -0.687,-5.601 -3.228,-7.826 -2.542,-2.225 -16.153,-9.617 -16.153,-9.617 0,0 6.403,6.098 3.66,11.017 -1.876,3.364 -2.081,7.518 -0.434,9.647 0,0 -4.053,-2.469 -4.004,-7.397 0.049,-5.027 -0.402,-9.482 -3.282,-11.912 -2.878,-2.431 -11.626,-5.058 -14.724,-7.172 -3.1,-2.113 -8.225,-5.462 -8.225,-5.462 0,0 4.844,5.318 4.158,10.644 -0.348,2.705 -3.515,8.897 -1.235,12.541 0,0 -3.378,-2.058 -3.531,-5.307 -0.153,-3.248 1.187,-7.099 1.11,-9.236 -0.151,-4.205 -2.984,-10.605 -6.303,-12.402 -3.318,-1.797 -9.641,-2.723 -12.935,-6.983 -3.294,-4.259 -10.463,-10.207 -16.585,-12.81 0,0 3.988,6.035 2.107,11.873 -1.879,5.838 -5.472,13.111 -3.866,16.344 0,0 -5.471,-2.707 -5.018,-8.016 0.776,-9.102 0.133,-16.76 -2.544,-20.869 0,0 -4.83,0.232 -8.907,-5.258 -8.169,-11.006 -16.672,-10.951 -19.968,-11.043 -0.101,-0.004 5.931,3.051 4.952,11.578 0,0 -6.428,-9.099 -11.832,-12.392 -5.404,-3.293 -14.927,-5.493 -16.017,-7.733 0,0 0.276,12.783 2.675,16.949 0,0 -5.906,-11.935 -6.895,-15.015 -0.989,-3.08 -5.243,-3.871 -8.485,-4.045 -3.242,-0.174 -11.929,-2.539 -13.357,-4.986 l 3.358,13.537 c 0,0 -7.821,-8.823 -7.891,-14.272 0,0 -2.507,0.5 -5.529,0.01 -0.762,-0.123 -1.579,0.164 -2.375,0.662 -0.331,0.207 3.053,6.445 2.735,6.711 -0.259,0.217 -4.223,-5.547 -4.468,-5.309 -1.594,1.557 -2.803,3.413 -2.803,3.413 l 13.764,10.64 22.883,16.199 52.275,30.28 31.637,15 35.257,14.277 31.128,10.184 z"
         clip-rule="evenodd"
         id="path1437" />
    </clipPath>
    <linearGradient
       x1="0"
       y1="0"
       x2="1"
       y2="0"
       gradientUnits="userSpaceOnUse"
       gradientTransform="matrix(199.96582,0,0,-199.96582,176.83301,240.41797)"
       spreadMethod="pad"
       id="linearGradient1455">
      <stop
         style="stop-opacity:1;stop-color:#2e3192"
         offset="0"
         id="stop1445" />
      <stop
         style="stop-opacity:1;stop-color:#2e3192"
         offset="0.00561798"
         id="stop1447" />
      <stop
         style="stop-opacity:1;stop-color:#a3e1f2"
         offset="0.359551"
         id="stop1449" />
      <stop
         style="stop-opacity:1;stop-color:#fff98f"
         offset="0.780899"
         id="stop1451" />
      <stop
         style="stop-opacity:1;stop-color:#fff98f"
         offset="1"
         id="stop1453" />
    </linearGradient>
    <clipPath
       clipPathUnits="userSpaceOnUse"
       id="clipPath1465">
      <path
         d="m 368.764,293.936 c 0,0 -4.564,-0.866 -7.362,0.921 -2.797,1.788 -7.174,8.807 -15.929,5.498 0,0 6.482,0.348 8.305,-1.246 1.823,-1.591 3.29,-4.754 5.767,-5.384 0,0 -4.344,-1.182 -5.609,0.298 -1.266,1.483 -0.484,3.649 -2.345,4.43 0,0 0.41,-0.764 0.222,-2.23 -0.185,-1.465 -0.123,-3.118 2.633,-3.803 0,0 -1.768,-0.74 -5.052,0.187 -3.284,0.928 -9.491,2.44 -15.295,0.592 0,0 1.493,-1.117 -2.044,-2.597 -3.538,-1.479 -24.984,-3.623 -29.582,-7.213 0,0 7.458,0.152 8.056,-1.061 0,0 -5.887,0.354 -11.455,-0.447 0,0 -0.444,-1.961 -2.689,-2.879 -2.246,-0.918 -22.26,-8.947 -24.393,-11.936 l 2.409,-1.574 -6.094,-0.56 c 0,0 1.375,-1.639 -2.61,-3.168 -3.986,-1.528 -32.568,-11.399 -37.471,-16.977 0,0 2.46,-1.994 0.593,-3.807 -1.866,-1.812 -20.638,-8.861 -25.405,-12.554 0,0 4.883,-0.291 6.267,-1.25 0,0 -4.107,-0.137 -7.446,-1.383 0,0 -0.364,-2.25 -3.425,-3.551 -3.06,-1.303 -11.812,-6.523 -13.308,-9.914 -1.495,-3.389 -4.413,-6.633 -6.161,-7.922 -1.748,-1.291 -2.478,-10.297 -2.478,-10.297 l 11.767,9.537 16.546,11.999 22.934,15.779 43.188,22.939 36.052,15.213 32.255,13.237 25.781,9.064 z"
         clip-rule="evenodd"
         id="path1463" />
    </clipPath>
    <linearGradient
       x1="0"
       y1="0"
       x2="1"
       y2="0"
       gradientUnits="userSpaceOnUse"
       gradientTransform="matrix(191.90088,0,0,-191.90088,176.86279,247.66992)"
       spreadMethod="pad"
       id="linearGradient1481">
      <stop
         style="stop-opacity:1;stop-color:#2e3192"
         offset="0"
         id="stop1471" />
      <stop
         style="stop-opacity:1;stop-color:#2e3192"
         offset="0.00561798"
         id="stop1473" />
      <stop
         style="stop-opacity:1;stop-color:#a3e1f2"
         offset="0.359551"
         id="stop1475" />
      <stop
         style="stop-opacity:1;stop-color:#fff98f"
         offset="0.780899"
         id="stop1477" />
      <stop
         style="stop-opacity:1;stop-color:#fff98f"
         offset="1"
         id="stop1479" />
    </linearGradient>
    <clipPath
       clipPathUnits="userSpaceOnUse"
       id="clipPath1491">
      <path
         d="m 452.137,316.922 c 0,0 -180.699,-34.311 -275.025,-123 0,0 98.961,82.164 261.953,114.133 0,0 -1.539,4.131 13.072,8.867"
         id="path1489" />
    </clipPath>
    <linearGradient
       x1="0"
       y1="0"
       x2="1"
       y2="0"
       gradientUnits="userSpaceOnUse"
       gradientTransform="matrix(275.0249,0,0,-275.0249,177.11182,255.42187)"
       spreadMethod="pad"
       id="linearGradient1505">
      <stop
         style="stop-opacity:1;stop-color:#ffffff"
         offset="0"
         id="stop1497" />
      <stop
         style="stop-opacity:1;stop-color:#ffffff"
         offset="0.00561798"
         id="stop1499" />
      <stop
         style="stop-opacity:1;stop-color:#ffffff"
         offset="0.185393"
         id="stop1501" />
      <stop
         style="stop-opacity:1;stop-color:#6bb4e6"
         offset="1"
         id="stop1503" />
    </linearGradient>
    <clipPath
       clipPathUnits="userSpaceOnUse"
       id="clipPath1515">
      <path
         d="m 355.144,268.514 c 0,0 4.386,2.334 4.574,6.052 0.14,2.788 0.751,8.457 3.319,12.725 0,0 -2.32,-1.244 -2.986,-4.186 -0.385,-1.697 -0.941,-8.007 -2.241,-9.25 -1.3,-1.244 -2.666,-5.341 -2.666,-5.341"
         id="path1513" />
    </clipPath>
    <linearGradient
       x1="0"
       y1="0"
       x2="1"
       y2="0"
       gradientUnits="userSpaceOnUse"
       gradientTransform="matrix(0,18.777344,18.777344,0,359.08984,268.51367)"
       spreadMethod="pad"
       id="linearGradient1529">
      <stop
         style="stop-opacity:1;stop-color:#231f20"
         offset="0"
         id="stop1521" />
      <stop
         style="stop-opacity:1;stop-color:#231f20"
         offset="0.00561798"
         id="stop1523" />
      <stop
         style="stop-opacity:1;stop-color:#ffffff"
         offset="0.910112"
         id="stop1525" />
      <stop
         style="stop-opacity:1;stop-color:#ffffff"
         offset="1"
         id="stop1527" />
    </linearGradient>
    <clipPath
       clipPathUnits="userSpaceOnUse"
       id="clipPath1539">
      <path
         d="m 349.14,261.924 c 0,0 6.53,7.305 6.717,11.023 0.141,2.785 0.751,8.455 3.32,12.725 0,0 -2.321,-1.246 -2.987,-4.186 -0.384,-1.699 -0.94,-8.007 -2.241,-9.252 -1.301,-1.242 -4.809,-10.31 -4.809,-10.31"
         id="path1537" />
    </clipPath>
    <linearGradient
       x1="0"
       y1="0"
       x2="1"
       y2="0"
       gradientUnits="userSpaceOnUse"
       gradientTransform="matrix(0,23.748047,23.748047,0,354.1582,261.92383)"
       spreadMethod="pad"
       id="linearGradient1553">
      <stop
         style="stop-opacity:1;stop-color:#231f20"
         offset="0"
         id="stop1545" />
      <stop
         style="stop-opacity:1;stop-color:#231f20"
         offset="0.00561798"
         id="stop1547" />
      <stop
         style="stop-opacity:1;stop-color:#ffffff"
         offset="0.910112"
         id="stop1549" />
      <stop
         style="stop-opacity:1;stop-color:#ffffff"
         offset="1"
         id="stop1551" />
    </linearGradient>
    <clipPath
       clipPathUnits="userSpaceOnUse"
       id="clipPath1563">
      <path
         d="m 332.275,255.59 c 0,0 7.105,3.092 5.984,7.814 -0.647,2.723 0.271,11.348 1.751,16.049 0,0 -3.53,-4.654 -3.473,-7.66 0.031,-1.736 1.003,-8 0.033,-9.486 -0.968,-1.487 -4.295,-6.717 -4.295,-6.717"
         id="path1561" />
    </clipPath>
    <linearGradient
       x1="0"
       y1="0"
       x2="1"
       y2="0"
       gradientUnits="userSpaceOnUse"
       gradientTransform="matrix(0,23.863281,23.863281,0,336.14258,255.58984)"
       spreadMethod="pad"
       id="linearGradient1577">
      <stop
         style="stop-opacity:1;stop-color:#231f20"
         offset="0"
         id="stop1569" />
      <stop
         style="stop-opacity:1;stop-color:#231f20"
         offset="0.00561798"
         id="stop1571" />
      <stop
         style="stop-opacity:1;stop-color:#ffffff"
         offset="0.910112"
         id="stop1573" />
      <stop
         style="stop-opacity:1;stop-color:#ffffff"
         offset="1"
         id="stop1575" />
    </linearGradient>
    <clipPath
       clipPathUnits="userSpaceOnUse"
       id="clipPath1587">
      <path
         d="m 307.804,241.68 c 0,0 5.309,4.365 5.121,9.166 -0.143,3.597 -1.934,11.304 -0.14,17.707 0,0 -1.866,-2.461 -2.159,-6.453 -0.169,-2.307 1.038,-10.782 0.044,-12.854 -0.995,-2.074 -2.866,-7.566 -2.866,-7.566"
         id="path1585" />
    </clipPath>
    <linearGradient
       x1="0"
       y1="0"
       x2="1"
       y2="0"
       gradientUnits="userSpaceOnUse"
       gradientTransform="matrix(0,26.873047,26.873047,0,310.36719,241.67969)"
       spreadMethod="pad"
       id="linearGradient1601">
      <stop
         style="stop-opacity:1;stop-color:#231f20"
         offset="0"
         id="stop1593" />
      <stop
         style="stop-opacity:1;stop-color:#231f20"
         offset="0.00561798"
         id="stop1595" />
      <stop
         style="stop-opacity:1;stop-color:#ffffff"
         offset="0.910112"
         id="stop1597" />
      <stop
         style="stop-opacity:1;stop-color:#ffffff"
         offset="1"
         id="stop1599" />
    </linearGradient>
    <clipPath
       clipPathUnits="userSpaceOnUse"
       id="clipPath1611">
      <path
         d="m 298.524,238.443 c 0,0 10.135,4.262 9.521,11.024 -0.332,3.681 -1.18,11.181 1.236,17.287 0,0 -2.867,-2.111 -3.013,-6.086 -0.085,-2.295 -0.666,-10.227 -0.662,-12.531 0.006,-3.457 -7.082,-9.694 -7.082,-9.694"
         id="path1609" />
    </clipPath>
    <linearGradient
       x1="0"
       y1="0"
       x2="1"
       y2="0"
       gradientUnits="userSpaceOnUse"
       gradientTransform="matrix(0,28.310547,28.310547,0,303.90283,238.44336)"
       spreadMethod="pad"
       id="linearGradient1625">
      <stop
         style="stop-opacity:1;stop-color:#231f20"
         offset="0"
         id="stop1617" />
      <stop
         style="stop-opacity:1;stop-color:#231f20"
         offset="0.00561798"
         id="stop1619" />
      <stop
         style="stop-opacity:1;stop-color:#ffffff"
         offset="0.910112"
         id="stop1621" />
      <stop
         style="stop-opacity:1;stop-color:#ffffff"
         offset="1"
         id="stop1623" />
    </linearGradient>
    <clipPath
       clipPathUnits="userSpaceOnUse"
       id="clipPath1635">
      <path
         d="m 263.658,218.035 c 0,0 6.844,4.701 5.851,10.6 -0.742,4.42 -1.686,13.486 1.291,20.806 0,0 -3.615,-2.503 -3.737,-7.287 -0.071,-2.763 1.196,-12.826 -0.638,-15.086 -1.834,-2.261 -2.767,-9.033 -2.767,-9.033"
         id="path1633" />
    </clipPath>
    <linearGradient
       x1="0"
       y1="0"
       x2="1"
       y2="0"
       gradientUnits="userSpaceOnUse"
       gradientTransform="matrix(0,31.40625,31.40625,0,267.229,218.03516)"
       spreadMethod="pad"
       id="linearGradient1649">
      <stop
         style="stop-opacity:1;stop-color:#231f20"
         offset="0"
         id="stop1641" />
      <stop
         style="stop-opacity:1;stop-color:#231f20"
         offset="0.00561798"
         id="stop1643" />
      <stop
         style="stop-opacity:1;stop-color:#ffffff"
         offset="0.910112"
         id="stop1645" />
      <stop
         style="stop-opacity:1;stop-color:#ffffff"
         offset="1"
         id="stop1647" />
    </linearGradient>
    <clipPath
       clipPathUnits="userSpaceOnUse"
       id="clipPath1659">
      <path
         d="m 255.157,210.396 c 0,0 9.84,9.887 8.847,15.786 -0.742,4.42 -1.686,13.486 1.291,20.806 0,0 -3.616,-2.504 -3.737,-7.287 -0.071,-2.763 0.444,-11.338 0.245,-14.101 -0.408,-5.655 -6.646,-15.204 -6.646,-15.204"
         clip-rule="evenodd"
         id="path1657" />
    </clipPath>
    <linearGradient
       x1="0"
       y1="0"
       x2="1"
       y2="0"
       gradientUnits="userSpaceOnUse"
       gradientTransform="matrix(0,36.591797,36.591797,0,260.22607,210.39648)"
       spreadMethod="pad"
       id="linearGradient1673">
      <stop
         style="stop-opacity:1;stop-color:#231f20"
         offset="0"
         id="stop1665" />
      <stop
         style="stop-opacity:1;stop-color:#231f20"
         offset="0.00561798"
         id="stop1667" />
      <stop
         style="stop-opacity:1;stop-color:#ffffff"
         offset="0.910112"
         id="stop1669" />
      <stop
         style="stop-opacity:1;stop-color:#ffffff"
         offset="1"
         id="stop1671" />
    </linearGradient>
    <clipPath
       clipPathUnits="userSpaceOnUse"
       id="clipPath1683">
      <path
         d="m 222.713,199.932 c 0,0 10.762,5.791 11.208,11.888 0.336,4.569 1.546,13.838 5.894,20.651 0,0 -3.829,-1.862 -5.026,-6.643 -0.692,-2.76 -1.837,-13.088 -4.005,-15.027 -2.166,-1.94 -8.071,-10.869 -8.071,-10.869"
         id="path1681" />
    </clipPath>
    <linearGradient
       x1="0"
       y1="0"
       x2="1"
       y2="0"
       gradientUnits="userSpaceOnUse"
       gradientTransform="matrix(0,32.539062,32.539062,0,231.26416,199.93164)"
       spreadMethod="pad"
       id="linearGradient1697">
      <stop
         style="stop-opacity:1;stop-color:#231f20"
         offset="0"
         id="stop1689" />
      <stop
         style="stop-opacity:1;stop-color:#231f20"
         offset="0.00561798"
         id="stop1691" />
      <stop
         style="stop-opacity:1;stop-color:#ffffff"
         offset="0.910112"
         id="stop1693" />
      <stop
         style="stop-opacity:1;stop-color:#ffffff"
         offset="1"
         id="stop1695" />
    </linearGradient>
    <clipPath
       clipPathUnits="userSpaceOnUse"
       id="clipPath1709">
      <path
         d="m 437.233,308.967 c 0,0 -33.78,-5.83 -73.208,-18.594 0,0 43.988,15.541 75.054,20.957 z"
         clip-rule="evenodd"
         id="path1707" />
    </clipPath>
    <linearGradient
       x1="0"
       y1="0"
       x2="1"
       y2="0"
       gradientUnits="userSpaceOnUse"
       gradientTransform="matrix(75.053711,0,0,-75.053711,364.02539,300.85156)"
       spreadMethod="pad"
       id="linearGradient1723">
      <stop
         style="stop-opacity:1;stop-color:#231f20"
         offset="0"
         id="stop1715" />
      <stop
         style="stop-opacity:1;stop-color:#00adef"
         offset="0.117978"
         id="stop1717" />
      <stop
         style="stop-opacity:1;stop-color:#2e3192"
         offset="0.775281"
         id="stop1719" />
      <stop
         style="stop-opacity:1;stop-color:#2e3192"
         offset="1"
         id="stop1721" />
    </linearGradient>
  </defs>
  <sodipodi:namedview
     inkscape:window-maximized="1"
     inkscape:window-y="-8"
     inkscape:window-x="-8"
     inkscape:window-height="1017"
     inkscape:window-width="1920"
     showgrid="false"
     inkscape:document-rotation="0"
     inkscape:current-layer="layer1"
     inkscape:document-units="mm"
     inkscape:cy="284.02034"
     inkscape:cx="143.35583"
     inkscape:zoom="0.98994949"
     inkscape:pageshadow="2"
     inkscape:pageopacity="0.0"
     borderopacity="1.0"
     bordercolor="#666666"
     pagecolor="#ffffff"
     id="base" />
  <metadata
     id="metadata2019">
    <rdf:RDF>
      <cc:Work
         rdf:about="">
        <dc:format>image/svg+xml</dc:format>
        <dc:type
           rdf:resource="http://purl.org/dc/dcmitype/StillImage" />
        <dc:title></dc:title>
      </cc:Work>
    </rdf:RDF>
  </metadata>
  <g
     transform="translate(-60.296577,-48.882076)"
     id="layer1"
     inkscape:groupmode="layer"
     inkscape:label="Layer 1">
    <g
       transform="translate(1.8708867,8.5526249)"
       id="icon">
      <path
         id="path1255"
         style="fill:#231f20;fill-opacity:1;fill-rule:nonzero;stroke:none;stroke-width:0.352777"
         d="M 95.603636,56.199745 H 120.7066 v 6.606468 H 95.603636 Z" />
      <path
         id="path1257"
         style="fill:none;stroke:#231f20;stroke-width:0.00388056;stroke-linecap:butt;stroke-linejoin:miter;stroke-miterlimit:3.864;stroke-dasharray:none;stroke-opacity:1"
         d="M 95.603636,56.199745 H 120.7066 v 6.606468 H 95.603636 Z" />
      <path
         id="path1259"
         style="fill:#231f20;fill-opacity:1;fill-rule:nonzero;stroke:none;stroke-width:0.352777"
         d="m 82.014283,120.08991 h 52.093277 v 6.03991 H 82.014283 Z" />
      <path
         id="path1261"
         style="fill:none;stroke:#231f20;stroke-width:0.00388056;stroke-linecap:butt;stroke-linejoin:miter;stroke-miterlimit:3.864;stroke-dasharray:none;stroke-opacity:1"
         d="m 82.014283,120.08991 h 52.093277 v 6.03991 H 82.014283 Z" />
      <path
         id="path1263"
         style="fill:#231f20;fill-opacity:1;fill-rule:nonzero;stroke:none;stroke-width:0.352777"
         d="M 108.09585,119.80664 H 79.572002 c -3.231444,0 -5.850819,-2.61973 -5.850819,-5.85118 0,-0.41663 0.04339,-0.82409 0.173567,-1.21602 L 84.948336,64.423347 c 0.561975,-2.635603 2.911827,-4.625975 5.712529,-4.637264 h 17.482255 17.50624 c 2.80071,0.01129 5.15091,2.001661 5.71254,4.637264 l 11.05323,48.316093 c 0.13017,0.39193 0.17427,0.79939 0.17427,1.21602 0,3.23145 -2.61973,5.85118 -5.85117,5.85118 z" />
      <path
         id="path1265"
         style="fill:none;stroke:#ffffff;stroke-width:0.754944;stroke-linecap:butt;stroke-linejoin:miter;stroke-miterlimit:3.864;stroke-dasharray:none;stroke-opacity:1"
         d="M 108.09585,119.80664 H 79.572002 c -3.231444,0 -5.850819,-2.61973 -5.850819,-5.85118 0,-0.41663 0.04339,-0.82409 0.173567,-1.21602 L 84.948336,64.423347 c 0.561975,-2.635603 2.911827,-4.625975 5.712529,-4.637264 h 17.482255 17.50624 c 2.80071,0.01129 5.15091,2.001661 5.71254,4.637264 l 11.05323,48.316093 c 0.13017,0.39193 0.17427,0.79939 0.17427,1.21602 0,3.23145 -2.61973,5.85118 -5.85117,5.85118 z" />
      <path
         id="path1267"
         style="fill:#231f20;fill-opacity:1;fill-rule:nonzero;stroke:none;stroke-width:0.352777"
         d="m 78.858333,125.56361 h 58.404827 c 1.80129,0 3.26143,1.4598 3.26143,3.26108 v 0.0832 c 0,1.80094 -1.46014,3.26108 -3.26143,3.26108 H 78.858333 c -1.801283,0 -3.26143,-1.46014 -3.26143,-3.26108 v -0.0832 c 0,-1.80128 1.460147,-3.26108 3.26143,-3.26108" />
      <path
         id="path1269"
         style="fill:none;stroke:#ffffff;stroke-width:0.754944;stroke-linecap:butt;stroke-linejoin:miter;stroke-miterlimit:3.864;stroke-dasharray:none;stroke-opacity:1"
         d="m 78.858333,125.56361 h 58.404827 c 1.80129,0 3.26143,1.4598 3.26143,3.26108 v 0.0832 c 0,1.80094 -1.46014,3.26108 -3.26143,3.26108 H 78.858333 c -1.801283,0 -3.26143,-1.46014 -3.26143,-3.26108 v -0.0832 c 0,-1.80128 1.460147,-3.26108 3.26143,-3.26108 z" />
      <g
         id="g1271"
         transform="matrix(0.35277777,0,0,-0.35277777,-2.0861741,178.4884)">
        <g
           clip-path="url(#clipPath1277)"
           id="g1273">
          <g
             id="g1279">
            <g
               id="g1281">
              <path
                 id="path1291"
                 style="fill:url(#linearGradient1289);stroke:none"
                 d="m 230.737,177.043 c 0,0 136.43,10.432 109.144,17.924 -24.528,6.732 -92.024,12.84 -64.737,17.654 21.66,3.822 83.998,2.408 83.998,17.389 0,19.795 -58.291,9.101 -60.993,21.935 -2.14,10.166 39.481,2.756 58.318,23.809 9.096,10.166 7.317,43.56 7.317,43.56 l 27.904,-121.97 c 0.369,-1.114 0.492,-2.266 0.492,-3.448 0,-9.16 -7.425,-16.585 -16.585,-16.585 z" />
            </g>
          </g>
        </g>
      </g>
      <g
         id="g1293"
         transform="matrix(0.35277777,0,0,-0.35277777,-2.0861741,178.4884)">
        <g
           clip-path="url(#clipPath1299)"
           id="g1295">
          <g
             id="g1301">
            <g
               id="g1303">
              <path
                 id="path1315"
                 style="fill:url(#linearGradient1313);stroke:none"
                 d="m 292.799,160.992 h 89.616 v -6.42 h -89.616 z" />
            </g>
          </g>
        </g>
      </g>
      <g
         id="g1317"
         transform="matrix(0.35277777,0,0,-0.35277777,-2.0861741,178.4884)">
        <g
           clip-path="url(#clipPath1323)"
           id="g1319">
          <g
             id="g1325">
            <g
               id="g1327">
              <path
                 id="path1339"
                 style="fill:url(#linearGradient1337);stroke:none"
                 d="m 229.862,138.252 h 159.666 c 4.92,0 8.931,2.922 9.128,6.582 0.347,-0.727 0.536,-1.508 0.536,-2.324 v -0.174 c 0,-3.791 -4.089,-6.865 -9.134,-6.865 H 229.995 Z" />
            </g>
          </g>
        </g>
      </g>
      <path
         id="path1341"
         style="fill:#231f20;fill-opacity:1;fill-rule:nonzero;stroke:none;stroke-width:0.352777"
         d="m 96.10458,49.331162 h 24.10107 c 2.23202,0 4.04177,1.758949 4.04177,3.929238 0,2.170642 -1.80975,3.930297 -4.04177,3.930297 H 96.10458 c -2.232025,0 -4.041775,-1.759655 -4.041775,-3.930297 0,-2.170289 1.80975,-3.929238 4.041775,-3.929238" />
      <path
         id="path1343"
         style="fill:none;stroke:#ffffff;stroke-width:0.898173;stroke-linecap:butt;stroke-linejoin:miter;stroke-miterlimit:3.864;stroke-dasharray:none;stroke-opacity:1"
         d="m 96.10458,49.331162 h 24.10107 c 2.23202,0 4.04177,1.758949 4.04177,3.929238 0,2.170642 -1.80975,3.930297 -4.04177,3.930297 H 96.10458 c -2.232025,0 -4.041775,-1.759655 -4.041775,-3.930297 0,-2.170289 1.80975,-3.929238 4.041775,-3.929238 z" />
      <g
         id="g1345"
         transform="matrix(0.35277777,0,0,-0.35277777,-2.0861741,178.4884)">
        <g
           clip-path="url(#clipPath1351)"
           id="g1347">
          <g
             id="g1353">
            <g
               id="g1355">
              <path
                 id="path1367"
                 style="fill:url(#linearGradient1365);stroke:none"
                 d="m 280.226,350.789 h 65.587 c 3.844,0 7.247,1.693 9.325,4.287 -1.7,-4.082 -5.816,-6.961 -10.624,-6.961 H 280.36 Z" />
            </g>
          </g>
        </g>
      </g>
      <path
         id="path1369"
         style="fill:#231f20;fill-opacity:1;fill-rule:nonzero;stroke:none;stroke-width:0.352777"
         d="m 93.243553,110.75647 c 0,0 4.39067,-7.05908 13.005507,-6.39198 6.03355,0.46708 8.42362,5.19924 13.89485,5.44725 3.49321,0.15769 7.43339,-1.21391 8.10895,-2.99297 0,0 -1.93921,6.71653 -7.66409,7.71701 -6.56802,1.14794 -10.56005,-5.91961 -15.72931,-7.19772 -5.195705,-1.28482 -11.615907,3.41841 -11.615907,3.41841" />
      <path
         id="path1371"
         style="fill:#231f20;fill-opacity:1;fill-rule:evenodd;stroke:none;stroke-width:0.352777"
         d="m 89.069132,88.42035 c 0,-13.441187 8.613071,-24.336728 19.238028,-24.336728 10.62461,0 19.23768,10.895541 19.23768,24.336728 0,13.44083 -8.61307,24.33708 -19.23768,24.33708 -10.624957,0 -19.238028,-10.89625 -19.238028,-24.33708 m 8.015113,0 c 0,12.03607 5.024255,21.7932 11.222915,21.7932 6.19795,0 11.22257,-9.75713 11.22257,-21.7932 0,-12.036425 -5.02462,-21.792848 -11.22257,-21.792848 -6.19866,0 -11.222915,9.756423 -11.222915,21.792848" />
      <g
         id="g1373"
         transform="matrix(0.35277777,0,0,-0.35277777,-2.0861741,178.4884)">
        <g
           clip-path="url(#clipPath1379)"
           id="g1375">
          <g
             id="g1381">
            <g
               id="g1383">
              <path
                 id="path1395"
                 style="fill:url(#linearGradient1393);fill-rule:evenodd;stroke:none"
                 d="m 253.981,258.146 c 0,38.1 24.415,68.987 54.534,68.987 30.117,0 54.532,-30.887 54.532,-68.987 0,-38.099 -24.415,-68.986 -54.532,-68.986 -30.119,0 -54.534,30.887 -54.534,68.986 m 22.72,0 c 0,-34.119 14.243,-61.775 31.814,-61.775 17.569,0 31.812,27.656 31.812,61.775 0,34.12 -14.243,61.776 -31.812,61.776 -17.571,0 -31.814,-27.656 -31.814,-61.776" />
            </g>
          </g>
        </g>
      </g>
      <path
         id="path1397"
         style="fill:#6bb4e6;fill-opacity:1;fill-rule:nonzero;stroke:none;stroke-width:0.352777"
         d="m 93.410063,110.36701 c 0,0 4.391025,-7.05803 13.005507,-6.39128 6.03391,0.46708 8.42363,5.19924 13.89521,5.44689 3.4932,0.15769 6.60012,-0.80645 8.10895,-2.99261 0,0 -2.10608,6.10482 -7.83096,7.10529 -6.56802,1.14794 -10.28242,-5.39079 -15.45132,-6.66961 -5.19606,-1.28517 -11.727387,3.50132 -11.727387,3.50132" />
      <path
         id="path1399"
         style="fill:#231f20;fill-opacity:1;fill-rule:nonzero;stroke:none;stroke-width:0.352777"
         d="m 103.98881,107.64286 c 0,0 2.85397,0.49389 7.28592,4.54589 4.5339,4.14585 8.4335,4.09434 12.35674,2.24508 0,0 -1.8295,3.14113 -5.34952,3.38102 -2.42887,0.16581 -4.30142,-0.54081 -6.86399,-3.36268 -4.66866,-5.14067 -7.42915,-6.80931 -7.42915,-6.80931" />
      <g
         id="g1401"
         transform="matrix(0.35277777,0,0,-0.35277777,-2.0861741,178.4884)">
        <g
           clip-path="url(#clipPath1407)"
           id="g1403">
          <g
             id="g1409">
            <g
               id="g1411">
              <path
                 id="path1421"
                 style="fill:url(#linearGradient1419);stroke:none"
                 d="m 300.293,200.988 c 0,0 8.587,-0.072 21.149,-11.558 12.854,-11.75 23.907,-11.604 35.029,-6.362 0,0 -4.58,-7.867 -14.566,-8.414 -6.545,-0.357 -12.732,1.721 -20.159,9.571 -12.436,13.148 -21.453,16.763 -21.453,16.763" />
            </g>
          </g>
        </g>
      </g>
      <g
         id="g1423"
         transform="matrix(0.35277777,0,0,-0.35277777,-2.0861741,178.4884)">
        <g
           clip-path="url(#clipPath1429)"
           id="g1425">
          <path
             id="path1431"
             style="fill:#2e3192;fill-opacity:1;fill-rule:evenodd;stroke:none"
             d="m 253.989,258.146 c 0,38.102 24.414,68.987 54.532,68.987 30.118,0 54.532,-30.885 54.532,-68.987 0,-38.099 -24.414,-68.986 -54.532,-68.986 -30.118,0 -54.532,30.887 -54.532,68.986 m 22.719,0 c 0,-34.117 14.243,-61.775 31.813,-61.775 17.569,0 31.813,27.658 31.813,61.775 0,34.12 -14.244,61.776 -31.813,61.776 -17.57,0 -31.813,-27.656 -31.813,-61.776" />
        </g>
      </g>
      <g
         id="g1433"
         transform="matrix(0.35277777,0,0,-0.35277777,-2.0861741,178.4884)">
        <g
           clip-path="url(#clipPath1439)"
           id="g1435">
          <g
             id="g1441">
            <g
               id="g1443">
              <path
                 id="path1457"
                 style="fill:url(#linearGradient1455);fill-rule:evenodd;stroke:none"
                 d="m 371.173,292.363 c 0,0 -0.604,-7.802 3.937,-10.894 4.539,-3.09 -1.512,-7.963 -1.512,-7.963 0,0 2.443,4.363 0.73,5.797 -1.714,1.435 -4.072,2.588 -4.155,4.791 0,0 -2.199,-4.821 -0.652,-6.086 2.212,-1.807 1.44,-6.502 -1.871,-7.617 0,0 3.357,2.972 1.125,4.966 -3.146,2.813 -1.861,7.2 -0.89,8.918 0,0 -5.16,-6.074 -5.213,-10.16 -0.053,-4.088 -0.687,-5.601 -3.228,-7.826 -2.542,-2.225 -16.153,-9.617 -16.153,-9.617 0,0 6.403,6.098 3.66,11.017 -1.876,3.364 -2.081,7.518 -0.434,9.647 0,0 -4.053,-2.469 -4.004,-7.397 0.049,-5.027 -0.402,-9.482 -3.282,-11.912 -2.878,-2.431 -11.626,-5.058 -14.724,-7.172 -3.1,-2.113 -8.225,-5.462 -8.225,-5.462 0,0 4.844,5.318 4.158,10.644 -0.348,2.705 -3.515,8.897 -1.235,12.541 0,0 -3.378,-2.058 -3.531,-5.307 -0.153,-3.248 1.187,-7.099 1.11,-9.236 -0.151,-4.205 -2.984,-10.605 -6.303,-12.402 -3.318,-1.797 -9.641,-2.723 -12.935,-6.983 -3.294,-4.259 -10.463,-10.207 -16.585,-12.81 0,0 3.988,6.035 2.107,11.873 -1.879,5.838 -5.472,13.111 -3.866,16.344 0,0 -5.471,-2.707 -5.018,-8.016 0.776,-9.102 0.133,-16.76 -2.544,-20.869 0,0 -4.83,0.232 -8.907,-5.258 -8.169,-11.006 -16.672,-10.951 -19.968,-11.043 -0.101,-0.004 5.931,3.051 4.952,11.578 0,0 -6.428,-9.099 -11.832,-12.392 -5.404,-3.293 -14.927,-5.493 -16.017,-7.733 0,0 0.276,12.783 2.675,16.949 0,0 -5.906,-11.935 -6.895,-15.015 -0.989,-3.08 -5.243,-3.871 -8.485,-4.045 -3.242,-0.174 -11.929,-2.539 -13.357,-4.986 l 3.358,13.537 c 0,0 -7.821,-8.823 -7.891,-14.272 0,0 -2.507,0.5 -5.529,0.01 -0.762,-0.123 -1.579,0.164 -2.375,0.662 -0.331,0.207 3.053,6.445 2.735,6.711 -0.259,0.217 -4.223,-5.547 -4.468,-5.309 -1.594,1.557 -2.803,3.413 -2.803,3.413 l 13.764,10.64 22.883,16.199 52.275,30.28 31.637,15 35.257,14.277 31.128,10.184 z" />
            </g>
          </g>
        </g>
      </g>
      <g
         id="g1459"
         transform="matrix(0.35277777,0,0,-0.35277777,-2.0861741,178.4884)">
        <g
           clip-path="url(#clipPath1465)"
           id="g1461">
          <g
             id="g1467">
            <g
               id="g1469">
              <path
                 id="path1483"
                 style="fill:url(#linearGradient1481);fill-rule:evenodd;stroke:none"
                 d="m 368.764,293.936 c 0,0 -4.564,-0.866 -7.362,0.921 -2.797,1.788 -7.174,8.807 -15.929,5.498 0,0 6.482,0.348 8.305,-1.246 1.823,-1.591 3.29,-4.754 5.767,-5.384 0,0 -4.344,-1.182 -5.609,0.298 -1.266,1.483 -0.484,3.649 -2.345,4.43 0,0 0.41,-0.764 0.222,-2.23 -0.185,-1.465 -0.123,-3.118 2.633,-3.803 0,0 -1.768,-0.74 -5.052,0.187 -3.284,0.928 -9.491,2.44 -15.295,0.592 0,0 1.493,-1.117 -2.044,-2.597 -3.538,-1.479 -24.984,-3.623 -29.582,-7.213 0,0 7.458,0.152 8.056,-1.061 0,0 -5.887,0.354 -11.455,-0.447 0,0 -0.444,-1.961 -2.689,-2.879 -2.246,-0.918 -22.26,-8.947 -24.393,-11.936 l 2.409,-1.574 -6.094,-0.56 c 0,0 1.375,-1.639 -2.61,-3.168 -3.986,-1.528 -32.568,-11.399 -37.471,-16.977 0,0 2.46,-1.994 0.593,-3.807 -1.866,-1.812 -20.638,-8.861 -25.405,-12.554 0,0 4.883,-0.291 6.267,-1.25 0,0 -4.107,-0.137 -7.446,-1.383 0,0 -0.364,-2.25 -3.425,-3.551 -3.06,-1.303 -11.812,-6.523 -13.308,-9.914 -1.495,-3.389 -4.413,-6.633 -6.161,-7.922 -1.748,-1.291 -2.478,-10.297 -2.478,-10.297 l 11.767,9.537 16.546,11.999 22.934,15.779 43.188,22.939 36.052,15.213 32.255,13.237 25.781,9.064 z" />
            </g>
          </g>
        </g>
      </g>
      <g
         id="g1485"
         transform="matrix(0.35277777,0,0,-0.35277777,-2.0861741,178.4884)">
        <g
           clip-path="url(#clipPath1491)"
           id="g1487">
          <g
             id="g1493">
            <g
               id="g1495">
              <path
                 id="path1507"
                 style="fill:url(#linearGradient1505);stroke:none"
                 d="m 452.137,316.922 c 0,0 -180.699,-34.311 -275.025,-123 0,0 98.961,82.164 261.953,114.133 0,0 -1.539,4.131 13.072,8.867" />
            </g>
          </g>
        </g>
      </g>
      <g
         id="g1509"
         transform="matrix(0.35277777,0,0,-0.35277777,-2.0861741,178.4884)">
        <g
           clip-path="url(#clipPath1515)"
           id="g1511">
          <g
             id="g1517">
            <g
               id="g1519">
              <path
                 id="path1531"
                 style="fill:url(#linearGradient1529);stroke:none"
                 d="m 355.144,268.514 c 0,0 4.386,2.334 4.574,6.052 0.14,2.788 0.751,8.457 3.319,12.725 0,0 -2.32,-1.244 -2.986,-4.186 -0.385,-1.697 -0.941,-8.007 -2.241,-9.25 -1.3,-1.244 -2.666,-5.341 -2.666,-5.341" />
            </g>
          </g>
        </g>
      </g>
      <g
         id="g1533"
         transform="matrix(0.35277777,0,0,-0.35277777,-2.0861741,178.4884)">
        <g
           clip-path="url(#clipPath1539)"
           id="g1535">
          <g
             id="g1541">
            <g
               id="g1543">
              <path
                 id="path1555"
                 style="fill:url(#linearGradient1553);stroke:none"
                 d="m 349.14,261.924 c 0,0 6.53,7.305 6.717,11.023 0.141,2.785 0.751,8.455 3.32,12.725 0,0 -2.321,-1.246 -2.987,-4.186 -0.384,-1.699 -0.94,-8.007 -2.241,-9.252 -1.301,-1.242 -4.809,-10.31 -4.809,-10.31" />
            </g>
          </g>
        </g>
      </g>
      <g
         id="g1557"
         transform="matrix(0.35277777,0,0,-0.35277777,-2.0861741,178.4884)">
        <g
           clip-path="url(#clipPath1563)"
           id="g1559">
          <g
             id="g1565">
            <g
               id="g1567">
              <path
                 id="path1579"
                 style="fill:url(#linearGradient1577);stroke:none"
                 d="m 332.275,255.59 c 0,0 7.105,3.092 5.984,7.814 -0.647,2.723 0.271,11.348 1.751,16.049 0,0 -3.53,-4.654 -3.473,-7.66 0.031,-1.736 1.003,-8 0.033,-9.486 -0.968,-1.487 -4.295,-6.717 -4.295,-6.717" />
            </g>
          </g>
        </g>
      </g>
      <g
         id="g1581"
         transform="matrix(0.35277777,0,0,-0.35277777,-2.0861741,178.4884)">
        <g
           clip-path="url(#clipPath1587)"
           id="g1583">
          <g
             id="g1589">
            <g
               id="g1591">
              <path
                 id="path1603"
                 style="fill:url(#linearGradient1601);stroke:none"
                 d="m 307.804,241.68 c 0,0 5.309,4.365 5.121,9.166 -0.143,3.597 -1.934,11.304 -0.14,17.707 0,0 -1.866,-2.461 -2.159,-6.453 -0.169,-2.307 1.038,-10.782 0.044,-12.854 -0.995,-2.074 -2.866,-7.566 -2.866,-7.566" />
            </g>
          </g>
        </g>
      </g>
      <g
         id="g1605"
         transform="matrix(0.35277777,0,0,-0.35277777,-2.0861741,178.4884)">
        <g
           clip-path="url(#clipPath1611)"
           id="g1607">
          <g
             id="g1613">
            <g
               id="g1615">
              <path
                 id="path1627"
                 style="fill:url(#linearGradient1625);stroke:none"
                 d="m 298.524,238.443 c 0,0 10.135,4.262 9.521,11.024 -0.332,3.681 -1.18,11.181 1.236,17.287 0,0 -2.867,-2.111 -3.013,-6.086 -0.085,-2.295 -0.666,-10.227 -0.662,-12.531 0.006,-3.457 -7.082,-9.694 -7.082,-9.694" />
            </g>
          </g>
        </g>
      </g>
      <g
         id="g1629"
         transform="matrix(0.35277777,0,0,-0.35277777,-2.0861741,178.4884)">
        <g
           clip-path="url(#clipPath1635)"
           id="g1631">
          <g
             id="g1637">
            <g
               id="g1639">
              <path
                 id="path1651"
                 style="fill:url(#linearGradient1649);stroke:none"
                 d="m 263.658,218.035 c 0,0 6.844,4.701 5.851,10.6 -0.742,4.42 -1.686,13.486 1.291,20.806 0,0 -3.615,-2.503 -3.737,-7.287 -0.071,-2.763 1.196,-12.826 -0.638,-15.086 -1.834,-2.261 -2.767,-9.033 -2.767,-9.033" />
            </g>
          </g>
        </g>
      </g>
      <g
         id="g1653"
         transform="matrix(0.35277777,0,0,-0.35277777,-2.0861741,178.4884)">
        <g
           clip-path="url(#clipPath1659)"
           id="g1655">
          <g
             id="g1661">
            <g
               id="g1663">
              <path
                 id="path1675"
                 style="fill:url(#linearGradient1673);fill-rule:evenodd;stroke:none"
                 d="m 255.157,210.396 c 0,0 9.84,9.887 8.847,15.786 -0.742,4.42 -1.686,13.486 1.291,20.806 0,0 -3.616,-2.504 -3.737,-7.287 -0.071,-2.763 0.444,-11.338 0.245,-14.101 -0.408,-5.655 -6.646,-15.204 -6.646,-15.204" />
            </g>
          </g>
        </g>
      </g>
      <g
         id="g1677"
         transform="matrix(0.35277777,0,0,-0.35277777,-2.0861741,178.4884)">
        <g
           clip-path="url(#clipPath1683)"
           id="g1679">
          <g
             id="g1685">
            <g
               id="g1687">
              <path
                 id="path1699"
                 style="fill:url(#linearGradient1697);stroke:none"
                 d="m 222.713,199.932 c 0,0 10.762,5.791 11.208,11.888 0.336,4.569 1.546,13.838 5.894,20.651 0,0 -3.829,-1.862 -5.026,-6.643 -0.692,-2.76 -1.837,-13.088 -4.005,-15.027 -2.166,-1.94 -8.071,-10.869 -8.071,-10.869" />
            </g>
          </g>
        </g>
      </g>
      <path
         id="path1701"
         style="fill:#ffffff;fill-opacity:1;fill-rule:nonzero;stroke:none;stroke-width:0.352777"
         d="m 67.565211,110.52082 c 0,0 3.885142,-0.86889 4.630561,-2.90901 0.5588,-1.52823 1.87325,-4.58258 4.017786,-6.53203 0,0 -1.485547,0.30656 -2.358672,1.83303 -0.504472,0.88195 -1.899708,4.30213 -2.826808,4.77732 -0.9271,0.47554 -3.462867,2.83069 -3.462867,2.83069" />
      <g
         id="g1703"
         transform="matrix(0.35277777,0,0,-0.35277777,-2.0861741,178.4884)">
        <g
           clip-path="url(#clipPath1709)"
           id="g1705">
          <g
             id="g1711">
            <g
               id="g1713">
              <path
                 id="path1725"
                 style="fill:url(#linearGradient1723);fill-rule:evenodd;stroke:none"
                 d="m 437.233,308.967 c 0,0 -33.78,-5.83 -73.208,-18.594 0,0 43.988,15.541 75.054,20.957 z" />
            </g>
          </g>
        </g>
      </g>
      <path
         id="path1727"
         style="fill:#231f20;fill-opacity:1;fill-rule:nonzero;stroke:none;stroke-width:0.352777"
         d="m 153.32937,70.982191 c 0,0 0.11782,4.782254 0.46672,5.796492 0.38912,1.131004 0.59761,2.742494 -0.4378,2.591504 -0.85936,-0.125235 -0.77893,-1.49225 -0.47448,-2.229554 0.30445,-0.737306 0.44556,-6.158442 0.44556,-6.158442" />
      <path
         id="path1729"
         style="fill:none;stroke:#231f20;stroke-width:0.264583;stroke-linecap:butt;stroke-linejoin:miter;stroke-miterlimit:3.864;stroke-dasharray:none;stroke-opacity:1"
         d="m 153.32937,70.982191 c 0,0 0.11782,4.782254 0.46672,5.796492 0.38912,1.131004 0.59761,2.742494 -0.4378,2.591504 -0.85936,-0.125235 -0.77893,-1.49225 -0.47448,-2.229554 0.30445,-0.737306 0.44556,-6.158442 0.44556,-6.158442 z" />
      <path
         id="path1731"
         style="fill:#ffffff;fill-opacity:1;fill-rule:nonzero;stroke:none;stroke-width:0.352777"
         d="m 153.83984,77.610533 c 0,0 0.2734,1.542696 -0.45368,1.478492 -0.33514,-0.02963 -0.35489,-0.453321 -0.35489,-0.453321 0,0 0.19897,0.05786 0.41416,0 0.36477,-0.09842 0.39441,-1.025171 0.39441,-1.025171" />
    </g>
  </g>
</svg>
